<svg class="product-tile__image-loading-logo" width="175" height="22" viewBox="0 0 175 22" fill="none" xmlns="http://www.w3.org/2000/svg">
  <path fill-rule="evenodd" clip-rule="evenodd" d="M151.919 0.570958H158.334C158.564 0.570958 158.708 0.769839 158.622 0.96872L152.034 19.7902C151.976 19.9894 151.746 20.1883 151.516 20.1883H145.187C144.956 20.1883 144.726 19.9894 144.668 19.7902L141.199 9.88018C141.208 10.0457 141.212 10.212 141.212 10.3796C141.212 16.1028 136.501 20.7589 130.709 20.7589C125.428 20.7589 121.047 16.8872 120.315 11.8652V19.7902C120.315 19.9894 120.143 20.1883 119.884 20.1883H114.907C114.706 20.1883 114.447 20.0464 114.303 19.8187L109.297 10.9766V19.7902C109.297 19.9887 109.125 20.1862 108.868 20.188H102.862L90.4294 2.5681V20.2015H89.1762V0.562975H90.4294L102.872 18.1669V0.562975H103.483L104.632 0.570958H108.751C109.009 0.570958 109.297 0.712917 109.412 0.940259L114.389 9.7823V0.997181C114.389 0.769839 114.59 0.570958 114.792 0.570958H119.884C120.143 0.570958 120.315 0.769839 120.315 0.997181V8.8941C121.047 3.8721 125.428 0 130.709 0C134.243 0 137.372 1.73509 139.277 4.38649L138.08 0.96872C137.994 0.769839 138.138 0.570958 138.368 0.570958H144.784C145.043 0.570958 145.273 0.769839 145.33 0.96872L148.351 12.6541L151.372 0.96872C151.429 0.769839 151.659 0.570958 151.919 0.570958ZM126.099 10.3796C126.099 12.8919 128.167 14.9359 130.709 14.9359C133.251 14.9359 135.32 12.8919 135.32 10.3796C135.32 7.86743 133.251 5.82343 130.709 5.82343C128.167 5.82343 126.099 7.86743 126.099 10.3796ZM163.291 12.7679L164.845 7.36584L166.398 12.7679H163.291ZM168.469 0.940217L174.971 19.8186C175.058 19.9894 174.943 20.1883 174.713 20.1883H169.016C168.757 20.1883 168.527 20.0463 168.412 19.8186L167.549 16.8337H162.14L161.277 19.8186C161.162 20.0463 160.932 20.1883 160.673 20.1883H154.976C154.746 20.1883 154.631 19.9894 154.717 19.8186L161.22 0.940217C161.306 0.769798 161.622 0.570917 161.91 0.570917H167.779C168.067 0.570917 168.383 0.769798 168.469 0.940217Z" fill="#7E7E7E"></path>
  <path d="M1.28266 1.81576H10.0575V0.669647H0V20.7589H1.28266V11.4384H9.70781V10.292H1.28266V1.81576Z" fill="#7E7E7E"></path>
  <path fill-rule="evenodd" clip-rule="evenodd" d="M37.7636 10.1238C38.445 10.4953 39.0672 10.9262 39.6301 11.4174C40.193 11.9093 40.6568 12.4752 41.0227 13.1172C41.3881 13.7593 41.5709 14.5114 41.5709 15.3737C41.5709 16.156 41.4174 16.8777 41.1116 17.5396C40.8054 18.2014 40.3754 18.7733 39.8226 19.2546C39.2695 19.7359 38.6079 20.1073 37.8375 20.3676C37.0671 20.6283 36.2176 20.7589 35.2896 20.7589C34.4006 20.7589 33.4673 20.6538 32.4898 20.443C31.5119 20.2327 30.6676 19.9568 29.9565 19.6154L30.2822 18.5024C31.092 18.8636 31.892 19.1395 32.6823 19.3297C33.4722 19.5209 34.3214 19.6154 35.2303 19.6154C36.771 19.6154 37.9955 19.2394 38.9043 18.4876C39.8125 17.7354 40.2673 16.7074 40.2673 15.4038C40.2673 14.7019 40.1288 14.1003 39.8522 13.5985C39.5757 13.0974 39.2154 12.6508 38.7711 12.2599C38.3265 11.8686 37.8176 11.5229 37.245 11.2219C36.672 10.9209 36.0791 10.6203 35.4671 10.3193C34.7364 9.95805 34.0599 9.60251 33.4377 9.25121C32.8155 8.90063 32.2823 8.50932 31.838 8.07799C31.3933 7.64667 31.0477 7.16045 30.8008 6.61863C30.5535 6.07717 30.4304 5.4355 30.4304 4.69325C30.4304 3.89115 30.5832 3.19423 30.8897 2.60213C31.1956 2.01109 31.6054 1.52452 32.1191 1.14312C32.6328 0.762436 33.2253 0.476655 33.897 0.285781C34.5683 0.0952602 35.2697 0 36.0007 0C36.8896 0 37.7437 0.100572 38.5636 0.300654C39.3832 0.501444 40.119 0.772351 40.7709 1.11302L40.4744 2.25614C39.7633 1.91547 39.0376 1.64492 38.2968 1.44413C37.5561 1.24369 36.8105 1.14312 36.0599 1.14312C34.8156 1.14312 33.783 1.4289 32.9637 2.00046C32.1438 2.57202 31.734 3.44991 31.734 4.63304C31.734 5.21523 31.8181 5.71172 31.9862 6.1225C32.1536 6.53364 32.4054 6.90442 32.7416 7.23552C33.0771 7.56628 33.497 7.88251 34.0006 8.18317C34.5045 8.48418 35.1016 8.7951 35.7931 9.11558C36.4251 9.41659 37.0821 9.75301 37.7636 10.1238ZM18.5201 0.360826L10.728 20.398H12.0316L14.076 14.9827H23.8832L25.9568 20.398H27.2608L19.4683 0.360826H18.5201ZM14.5203 13.8392L18.9944 2.04575L23.4681 13.8392H14.5203Z" fill="#7E7E7E"></path>
  <path d="M57.0195 9.96017H44.8959V0.669647H43.5824V20.7589H44.8959V11.1666H57.0195V20.7589H58.3334V0.669647H57.0195V9.96017Z" fill="#7E7E7E"></path>
  <path d="M62.3563 20.7589H63.6973V0.669647H62.3563V20.7589Z" fill="#7E7E7E"></path>
  <path fill-rule="evenodd" clip-rule="evenodd" d="M66.3793 10.7143C66.3793 4.80625 71.1922 0 77.1075 0C83.0228 0 87.8353 4.80625 87.8353 10.7143C87.8353 16.6223 83.0228 21.4286 77.1075 21.4286C71.1922 21.4286 66.3793 16.6223 66.3793 10.7143ZM67.8095 10.7143C67.8095 15.8343 71.9805 19.9999 77.1075 19.9999C82.2341 19.9999 86.4051 15.8343 86.4051 10.7143C86.4051 5.59426 82.2341 1.42872 77.1075 1.42872C71.9805 1.42872 67.8095 5.59426 67.8095 10.7143Z" fill="#7E7E7E"></path>
</svg>
